<?xml version="1.0" encoding="UTF-8"?><svg id="Layer_2" xmlns="http://www.w3.org/2000/svg" viewBox="0 0 65.48 89.32"><defs><style>.cls-1{fill:#3c3f42;}</style></defs><g id="Layer_1-2"><g><path class="cls-1" d="M60.95,29.79s0-.01-.01-.02c0-.01,0-.02-.01-.03,0,0,0-.01,0-.02-2.62-6.08-8.46-16.66-19.2-22.53,2.06-1.18,3.17-2.8,2.82-4.38-.53-2.33-4.02-3.4-8.13-2.49-2.48,.54-4.51,1.65-5.58,3C6.62-1.81,.65,18.6,.05,20.96v.06c-.13,.56,.06,1.12,.47,1.48,.59,.54,5.95,5.35,14.27,7.15,4.46,.96,9.7-1.37,15.25-3.82,2.82-1.25,5.73-2.54,8.48-3.33,.11,1.42,.83,3.01,2.07,4.43,1.54,1.75,3.47,2.71,5.1,2.71,.82,0,1.57-.24,2.16-.75h.01c1.45-1.3,1.39-3.78,0-6.09,4.9,2.12,8.52,6.15,10.38,8.57-.46,2-1.5,5.96-2.81,8.06-.43,.69-1.28,1.5-2.18,2.36-2.78,2.65-6.97,6.64-3.22,12.4l.07,.09c1.42,1.77,3.35,2.71,5.51,2.71,.32,0,.65-.02,.98-.06,3.02-.38,5.99-2.56,7.22-5.29,1.15-2.53,4.31-11.56-2.84-21.85ZM36.92,2.64c3.04-.68,5.16,.07,5.31,.69,.1,.48-.93,1.72-3.27,2.51-.02,0-.04-.02-.06-.02-.1-.05-.21-.09-.32-.13-.13-.05-.27-.11-.4-.16-.43-.18-.87-.34-1.31-.5-.24-.08-.48-.16-.72-.24-.9-.3-1.75-.56-2.56-.79,.79-.54,1.93-1.05,3.33-1.36Zm9.38,24.46c-.56,.48-2.37,.04-3.93-1.74-1.08-1.23-1.56-2.58-1.49-3.42h0s.07-.02,.11-.02c.13-.02,.25-.04,.38-.06,.12-.02,.23-.03,.35-.05,.16-.02,.31-.03,.46-.05,.09,0,.17-.01,.25-.02,.13,0,.26-.01,.39-.02,.12,0,.23,0,.34,0,.09,0,.17,0,.26,0h.21c.52,.34,.99,.75,1.43,1.26,1.56,1.77,1.77,3.61,1.23,4.11Zm.28-7.29c-.73-.21-1.48-.34-2.23-.4l-.27-.02c-1.36-.1-2.79,.02-4.39,.37l-.54,.12c-3.29,.77-6.74,2.3-10.08,3.78-5.19,2.3-10.09,4.47-13.79,3.67-6.8-1.47-11.44-5.08-12.81-6.26C3.52,17.5,9.51,1.09,30.61,5.7l.52,.12c1.49,.34,3.12,.81,4.96,1.44,.45,.16,.89,.33,1.33,.51,.33,.13,.66,.27,.99,.42h0s.05,.03,.05,.03c8.84,4.01,14.56,11.7,17.79,17.44-2.48-2.32-5.75-4.66-9.67-5.84Zm15.05,30.86h0c-.89,1.99-3.14,3.63-5.36,3.91-1.19,.15-2.91-.03-4.3-1.74-2.44-3.79-.43-6.16,2.9-9.34,1.01-.96,1.97-1.88,2.56-2.82,1.25-1.99,2.23-5.22,2.82-7.57,4.8,8.42,2.32,15.47,1.38,17.56Z"/><path class="cls-1" d="M64.97,66.82c-.59-.54-5.95-5.35-14.27-7.15-4.46-.96-9.7,1.37-15.25,3.82-2.82,1.25-5.73,2.54-8.48,3.33-.11-1.42-.83-3.01-2.07-4.43-1.54-1.75-3.47-2.71-5.1-2.71-.82,0-1.57,.24-2.16,.75h-.01c-1.45,1.3-1.39,3.78,0,6.09-4.9-2.12-8.53-6.15-10.38-8.58,.47-2,1.5-5.96,2.81-8.05,.43-.69,1.28-1.5,2.18-2.36,2.78-2.65,6.97-6.64,3.22-12.4l-.07-.09c-1.42-1.77-3.35-2.71-5.51-2.71-.32,0-.65,.02-.98,.06-3.02,.38-5.99,2.56-7.22,5.29-1.15,2.53-4.31,11.56,2.84,21.85,0,0,0,.01,.01,.02,0,.01,0,.02,.01,.03,0,0,0,.01,0,.02,2.62,6.08,8.46,16.67,19.2,22.53-2.06,1.18-3.17,2.81-2.82,4.38,.53,2.33,4.02,3.4,8.13,2.49,2.48-.54,4.51-1.65,5.58-3,24.21,5.13,30.18-15.28,30.79-17.64v-.06c.13-.56-.06-1.12-.47-1.48ZM3.85,38.66h0c.89-1.99,3.14-3.63,5.36-3.91,1.19-.15,2.91,.03,4.3,1.74,2.44,3.79,.43,6.16-2.9,9.34-1.01,.96-1.97,1.88-2.56,2.82-1.25,1.99-2.23,5.22-2.82,7.57-4.8-8.42-2.32-15.47-1.38-17.55Zm15.34,23.57c.56-.48,2.37-.04,3.93,1.74,1.08,1.23,1.56,2.58,1.49,3.42h0s-.07,.02-.11,.02c-.13,.02-.25,.04-.38,.06-.11,.02-.21,.03-.32,.04-.17,.02-.33,.04-.5,.05-.09,0-.17,.01-.25,.02-.13,0-.26,.01-.39,.02-.12,0-.23,0-.34,0-.09,0-.17,0-.26,0-.07,0-.14,0-.21,0-.52-.33-.99-.74-1.43-1.26-1.56-1.77-1.77-3.61-1.23-4.11Zm9.38,24.46c-3.04,.68-5.16-.07-5.31-.69-.1-.48,.93-1.72,3.27-2.51,.02,0,.04,.02,.06,.02,.1,.05,.21,.09,.32,.13,.57,.24,1.13,.46,1.71,.66,.24,.08,.48,.16,.72,.24,.24,.08,.47,.15,.69,.23,.17,.05,.35,.11,.52,.16,.46,.14,.91,.27,1.35,.4-.79,.54-1.93,1.05-3.33,1.36Zm6.31-3.06l-.52-.12c-1.49-.34-3.12-.81-4.96-1.44-.39-.14-.77-.29-1.16-.44-.38-.15-.77-.32-1.16-.49h0s-.06-.03-.06-.03c-8.84-4.01-14.56-11.7-17.79-17.44,2.48,2.32,5.75,4.66,9.67,5.84,.73,.21,1.48,.35,2.23,.4l.27,.02c1.36,.1,2.79-.02,4.39-.37l.54-.12c3.29-.77,6.74-2.3,10.08-3.78,5.19-2.3,10.09-4.47,13.79-3.67,6.8,1.47,11.44,5.08,12.81,6.26-1.04,3.58-7.04,19.98-28.13,15.38Z"/></g></g></svg>